<svg aria-hidden="true" style="position:absolute;width:0;height:0;overflow:hidden" xmlns="http://www.w3.org/2000/svg">
  <defs>
    <symbol id="icon-logo"  viewBox="0 0 227 216" fill="none">
<path d="M105.83 148.83C103.85 148.023 102.163 146.777 100.77 145.09C99.3767 143.403 98.2033 141.57 97.25 139.59C96.2967 137.537 95.5267 135.41 94.94 133.21C94.3533 130.937 93.8767 128.92 93.51 127.16C93.29 126.207 93.0333 124.74 92.74 122.76C92.52 120.707 92.2267 118.397 91.86 115.83C91.5667 113.263 91.2733 110.587 90.98 107.8C90.6867 105.013 90.3567 102.373 89.99 99.88L89.22 92.95C89 90.97 88.8533 89.4667 88.78 88.44L78.11 131.78L77.56 132.77C77.2667 133.283 76.9 133.87 76.46 134.53C76.0933 135.19 75.6167 135.813 75.03 136.4C74.5167 136.987 73.9667 137.427 73.38 137.72C72.8667 137.94 72.3167 137.977 71.73 137.83C71.2167 137.683 70.74 137.207 70.3 136.4L47.09 89.98L40.93 136.4C40.7833 137.133 40.4533 137.647 39.94 137.94C39.4267 138.16 38.8767 138.16 38.29 137.94C37.7767 137.647 37.3 137.243 36.86 136.73C36.42 136.217 36.2367 135.593 36.31 134.86L44.12 77.66C44.12 77.3667 44.3033 77.0367 44.67 76.67C45.11 76.3033 45.5867 76.01 46.1 75.79C46.6133 75.57 47.1267 75.46 47.64 75.46C48.1533 75.3867 48.4833 75.57 48.63 76.01L73.05 130.13L87.24 76.01C87.3133 75.8633 87.6433 75.4233 88.23 74.69C88.8167 73.8833 89.4767 73.15 90.21 72.49C90.9433 71.83 91.6033 71.3533 92.19 71.06C92.85 70.7667 93.29 70.9133 93.51 71.5L94.94 77.66C95.16 81.6933 95.3433 86.3867 95.49 91.74C95.6367 97.0933 95.9667 102.593 96.48 108.24C96.9933 113.887 97.8367 119.423 99.01 124.85C100.257 130.277 102.053 135.153 104.4 139.48C104.62 139.773 104.913 140.177 105.28 140.69C105.647 141.203 106.087 141.68 106.6 142.12C107.113 142.56 107.59 142.963 108.03 143.33C108.543 143.77 108.873 144.027 109.02 144.1C109.607 144.393 110.377 144.43 111.33 144.21C112.357 143.99 113.42 143.807 114.52 143.66C115.62 143.587 116.647 143.66 117.6 143.88C118.553 144.173 119.287 144.76 119.8 145.64C120.313 146.667 120.35 147.437 119.91 147.95C119.543 148.537 118.92 148.977 118.04 149.27C117.16 149.563 116.097 149.71 114.85 149.71C113.677 149.783 112.503 149.783 111.33 149.71C110.157 149.637 109.057 149.49 108.03 149.27C107.077 149.123 106.343 148.977 105.83 148.83Z" fill="#2B2423"/>
<path d="M122.198 123.159C123.089 123.781 123.629 124.627 123.82 125.699C124.01 126.77 123.794 127.751 123.172 128.641C122.551 129.532 121.704 130.072 120.633 130.263C119.562 130.453 118.581 130.237 117.69 129.615C116.8 128.994 116.259 128.147 116.069 127.076C115.879 126.005 116.094 125.024 116.716 124.133C117.338 123.243 118.184 122.702 119.256 122.512C120.327 122.322 121.308 122.537 122.198 123.159Z" fill="#2B2423"/>
<path d="M131.863 106.114C133.144 120.334 188.338 121.99 185.878 127.204C183.053 133.19 127.4 120.851 126.119 106.632C124.838 92.412 173.106 70.5139 181.239 75.7098C186.716 79.2092 130.582 91.8945 131.863 106.114Z" fill="#2B2423"/>
<path d="M136 87.5C136 87.2239 136.224 87 136.5 87H140.5C140.776 87 141 87.2239 141 87.5V126.5C141 127.881 139.881 129 138.5 129C137.119 129 136 127.881 136 126.5V87.5Z" fill="#2B2423"/>
<path d="M138.638 73H142.234L142.787 72.3636L143.064 71.4091L143.34 70.7727L143.894 68.8636L144.723 66.3182L145 64.4091V62.8182L144.723 61.8636L144.17 60.9091L143.617 59.9545L142.787 59.3182L141.681 59H140.851H138.638H136.149L134.766 59.3182L133.383 59.9545L132.83 60.5909L132.277 61.5455L132 62.8182V64.4091L132.277 66.3182L133.106 68.8636L133.66 70.7727L133.936 71.7273L134.489 72.6818L135.043 73H138.638Z" fill="#2B2423"/>
<path d="M138.5 86L140.243 85.9766C140.635 85.9713 140.966 85.6829 141.024 85.2953L141.462 82.3772L141.945 74.8513C141.975 74.3902 141.609 74 141.147 74H135.853C135.391 74 135.025 74.3902 135.055 74.8513L135.534 82.3144C135.537 82.3562 135.543 82.3978 135.552 82.4387L136.208 85.3527C136.289 85.7133 136.607 85.9714 136.976 85.977L138.5 86Z" stroke="#2B2423" stroke-width="0.768"/>
<path d="M226 108C226 167.048 175.679 215 113.5 215C51.3206 215 1 167.048 1 108C1 48.9518 51.3206 1 113.5 1C175.679 1 226 48.9518 226 108Z" stroke="#645E58" stroke-width="2"/>
<path d="M124.98 148V137.92H128.942C129.581 137.92 130.118 138.051 130.552 138.312C130.986 138.573 131.313 138.912 131.532 139.327C131.751 139.738 131.861 140.172 131.861 140.629C131.861 141.184 131.723 141.66 131.448 142.057C131.177 142.454 130.811 142.724 130.349 142.869L130.335 142.526C130.979 142.685 131.474 142.995 131.819 143.457C132.164 143.914 132.337 144.449 132.337 145.06C132.337 145.653 132.218 146.168 131.98 146.607C131.747 147.046 131.404 147.389 130.951 147.636C130.503 147.879 129.959 148 129.32 148H124.98ZM126.464 146.607H129.096C129.427 146.607 129.724 146.544 129.985 146.418C130.251 146.292 130.459 146.112 130.608 145.879C130.762 145.641 130.839 145.359 130.839 145.032C130.839 144.729 130.771 144.456 130.636 144.213C130.505 143.966 130.314 143.772 130.062 143.632C129.815 143.487 129.523 143.415 129.187 143.415H126.464V146.607ZM126.464 142.036H128.921C129.192 142.036 129.434 141.982 129.649 141.875C129.868 141.763 130.041 141.604 130.167 141.399C130.298 141.189 130.363 140.937 130.363 140.643C130.363 140.251 130.232 139.929 129.971 139.677C129.71 139.425 129.36 139.299 128.921 139.299H126.464V142.036ZM139.886 148.21C139.134 148.21 138.474 148.047 137.905 147.72C137.34 147.389 136.899 146.929 136.582 146.341C136.269 145.748 136.113 145.062 136.113 144.283C136.113 143.457 136.267 142.741 136.575 142.134C136.887 141.527 137.321 141.058 137.877 140.727C138.432 140.396 139.078 140.23 139.816 140.23C140.586 140.23 141.241 140.41 141.783 140.769C142.324 141.124 142.728 141.63 142.994 142.288C143.264 142.946 143.372 143.728 143.316 144.633H141.853V144.101C141.843 143.224 141.675 142.575 141.349 142.155C141.027 141.735 140.534 141.525 139.872 141.525C139.139 141.525 138.588 141.756 138.22 142.218C137.851 142.68 137.667 143.347 137.667 144.22C137.667 145.051 137.851 145.695 138.22 146.152C138.588 146.605 139.12 146.831 139.816 146.831C140.273 146.831 140.667 146.728 140.999 146.523C141.335 146.313 141.596 146.014 141.783 145.627L143.218 146.082C142.924 146.759 142.478 147.284 141.881 147.657C141.283 148.026 140.618 148.21 139.886 148.21ZM137.191 144.633V143.492H142.588V144.633H137.191ZM149.824 148.21C149.264 148.21 148.795 148.107 148.417 147.902C148.039 147.692 147.752 147.417 147.556 147.076C147.365 146.731 147.269 146.353 147.269 145.942C147.269 145.559 147.337 145.223 147.472 144.934C147.607 144.645 147.808 144.4 148.074 144.199C148.34 143.994 148.667 143.828 149.054 143.702C149.39 143.604 149.77 143.518 150.195 143.443C150.62 143.368 151.065 143.298 151.532 143.233C152.003 143.168 152.47 143.102 152.932 143.037L152.4 143.331C152.409 142.738 152.283 142.3 152.022 142.015C151.765 141.726 151.322 141.581 150.692 141.581C150.295 141.581 149.931 141.674 149.6 141.861C149.269 142.043 149.038 142.346 148.907 142.771L147.542 142.351C147.729 141.702 148.083 141.187 148.606 140.804C149.133 140.421 149.833 140.23 150.706 140.23C151.383 140.23 151.971 140.347 152.47 140.58C152.974 140.809 153.343 141.173 153.576 141.672C153.697 141.919 153.772 142.181 153.8 142.456C153.828 142.731 153.842 143.028 153.842 143.345V148H152.547V146.271L152.799 146.495C152.486 147.074 152.087 147.505 151.602 147.79C151.121 148.07 150.529 148.21 149.824 148.21ZM150.083 147.013C150.498 147.013 150.855 146.941 151.154 146.796C151.453 146.647 151.693 146.458 151.875 146.229C152.057 146 152.176 145.762 152.232 145.515C152.311 145.291 152.356 145.039 152.365 144.759C152.379 144.479 152.386 144.255 152.386 144.087L152.862 144.262C152.4 144.332 151.98 144.395 151.602 144.451C151.224 144.507 150.881 144.563 150.573 144.619C150.27 144.67 149.999 144.733 149.761 144.808C149.56 144.878 149.381 144.962 149.222 145.06C149.068 145.158 148.944 145.277 148.851 145.417C148.762 145.557 148.718 145.727 148.718 145.928C148.718 146.124 148.767 146.306 148.865 146.474C148.963 146.637 149.112 146.768 149.313 146.866C149.514 146.964 149.77 147.013 150.083 147.013ZM161.311 148.203C160.789 148.203 160.35 148.119 159.995 147.951C159.641 147.783 159.351 147.564 159.127 147.293C158.908 147.018 158.74 146.719 158.623 146.397C158.507 146.075 158.427 145.76 158.385 145.452C158.343 145.144 158.322 144.873 158.322 144.64V140.44H159.806V144.157C159.806 144.451 159.83 144.754 159.876 145.067C159.928 145.375 160.021 145.662 160.156 145.928C160.296 146.194 160.49 146.409 160.737 146.572C160.989 146.735 161.316 146.817 161.717 146.817C161.979 146.817 162.226 146.775 162.459 146.691C162.693 146.602 162.896 146.462 163.068 146.271C163.246 146.08 163.383 145.828 163.481 145.515C163.584 145.202 163.635 144.822 163.635 144.374L164.545 144.717C164.545 145.403 164.417 146.01 164.16 146.537C163.904 147.06 163.535 147.468 163.054 147.762C162.574 148.056 161.993 148.203 161.311 148.203ZM163.81 148V145.816H163.635V140.44H165.112V148H163.81ZM174.204 148C173.728 148.093 173.262 148.133 172.804 148.119C172.347 148.105 171.939 148.016 171.579 147.853C171.22 147.69 170.949 147.433 170.767 147.083C170.604 146.77 170.515 146.453 170.501 146.131C170.492 145.804 170.487 145.436 170.487 145.025V138.34H171.957V144.955C171.957 145.258 171.96 145.522 171.964 145.746C171.974 145.97 172.023 146.159 172.111 146.313C172.279 146.602 172.545 146.768 172.909 146.81C173.278 146.847 173.71 146.831 174.204 146.761V148ZM169.038 141.616V140.44H174.204V141.616H169.038ZM179.623 151.36L181.086 147.377L181.107 148.553L177.81 140.44H179.336L181.8 146.705H181.352L183.704 140.44H185.188L181.016 151.36H179.623Z" fill="#2B2423"/>
</symbol>
<symbol id="icon-eye-closed" viewBox="0 0 32 32">
<path d="M29.443 15.194c-1.099-2.314-2.406-4.202-3.922-5.662l-1.59 1.59c1.297 1.239 2.426 2.86 3.403 4.879-2.6 5.381-6.291 7.937-11.334 7.937-1.514 0-2.908-0.233-4.183-0.699l-1.723 1.723c1.771 0.818 3.74 1.227 5.906 1.227 6.006 0 10.487-3.128 13.444-9.384 0.119-0.252 0.181-0.526 0.181-0.805s-0.062-0.553-0.181-0.805zM27.456 5.174l-1.332-1.334c-0.023-0.023-0.051-0.042-0.081-0.054s-0.063-0.019-0.096-0.019c-0.033 0-0.065 0.006-0.096 0.019s-0.058 0.031-0.081 0.054l-3.418 3.416c-1.884-0.963-4.002-1.444-6.353-1.444-6.006 0-10.488 3.128-13.444 9.384-0.119 0.252-0.18 0.527-0.18 0.805s0.062 0.553 0.18 0.805c1.181 2.487 2.603 4.481 4.266 5.981l-3.307 3.306c-0.047 0.047-0.073 0.11-0.073 0.177s0.026 0.13 0.073 0.177l1.334 1.334c0.047 0.047 0.11 0.073 0.177 0.073s0.13-0.026 0.177-0.073l22.255-22.254c0.023-0.023 0.042-0.051 0.054-0.081s0.019-0.063 0.019-0.096c0-0.033-0.007-0.065-0.019-0.096s-0.031-0.058-0.054-0.081zM4.665 16c2.603-5.381 6.294-7.938 11.334-7.938 1.704 0 3.254 0.293 4.66 0.887l-2.197 2.197c-1.040-0.555-2.232-0.761-3.398-0.588s-2.246 0.717-3.080 1.551c-0.834 0.834-1.378 1.914-1.551 3.080s0.033 2.358 0.588 3.398l-2.607 2.607c-1.443-1.273-2.687-2.999-3.749-5.195zM12.374 16c0.001-0.551 0.131-1.094 0.381-1.585s0.612-0.916 1.057-1.241c0.445-0.325 0.961-0.54 1.505-0.628s1.101-0.047 1.626 0.121l-4.403 4.403c-0.11-0.346-0.166-0.706-0.166-1.069z"></path>
<path d="M15.875 19.5c-0.108 0-0.215-0.005-0.32-0.015l-1.651 1.651c0.993 0.38 2.075 0.465 3.114 0.243s1.993-0.739 2.745-1.491c0.752-0.752 1.27-1.705 1.491-2.745s0.137-2.121-0.243-3.114l-1.651 1.651c0.010 0.106 0.015 0.212 0.015 0.32 0 0.46-0.090 0.915-0.266 1.34s-0.434 0.811-0.759 1.136c-0.325 0.325-0.711 0.583-1.136 0.759s-0.88 0.266-1.34 0.266z"></path>
</symbol>
<symbol id="icon-eye-opened" viewBox="0 0 32 32">
<path d="M29.443 15.194c-2.963-6.241-7.441-9.381-13.444-9.381-6.006 0-10.481 3.141-13.444 9.384-0.119 0.252-0.18 0.526-0.18 0.805s0.062 0.553 0.18 0.805c2.963 6.241 7.441 9.381 13.444 9.381 6.006 0 10.481-3.141 13.444-9.384 0.241-0.506 0.241-1.094 0-1.609zM15.999 23.937c-5.041 0-8.731-2.556-11.334-7.937 2.603-5.381 6.294-7.938 11.334-7.938s8.731 2.556 11.334 7.938c-2.6 5.381-6.291 7.937-11.334 7.937zM15.874 10.5c-3.038 0-5.5 2.463-5.5 5.5s2.463 5.5 5.5 5.5c3.037 0 5.5-2.463 5.5-5.5s-2.463-5.5-5.5-5.5zM15.874 19.5c-1.934 0-3.5-1.566-3.5-3.5s1.566-3.5 3.5-3.5c1.934 0 3.5 1.566 3.5 3.5s-1.566 3.5-3.5 3.5z"></path>
</symbol>
  </defs>
</svg>
