<svg aria-hidden="true" style="position:absolute;width:0;height:0;overflow:hidden" xmlns="http://www.w3.org/2000/svg">
  <defs>
    <symbol id="icon-logo" viewBox="0 0 227 216" fill="none">
      <path d="M105.83 148.83c-1.98-.807-3.667-2.053-5.06-3.74-1.3933-1.687-2.5667-3.52-3.52-5.5-.9533-2.053-1.7233-4.18-2.31-6.38-.5867-2.273-1.0633-4.29-1.43-6.05-.22-.953-.4767-2.42-.77-4.4-.22-2.053-.5133-4.363-.88-6.93-.2933-2.567-.5867-5.243-.88-8.03-.2933-2.787-.6233-5.427-.99-7.92l-.77-6.93c-.22-1.98-.3667-3.4833-.44-4.51l-10.67 43.34-.55.99c-.2933.513-.66 1.1-1.1 1.76-.3667.66-.8433 1.283-1.43 1.87-.5133.587-1.0633 1.027-1.65 1.32-.5133.22-1.0633.257-1.65.11-.5133-.147-.99-.623-1.43-1.43L47.09 89.98l-6.16 46.42c-.1467.733-.4767 1.247-.99 1.54-.5133.22-1.0633.22-1.65 0-.5133-.293-.99-.697-1.43-1.21-.44-.513-.6233-1.137-.55-1.87l7.81-57.2c0-.2933.1833-.6233.55-.99.44-.3667.9167-.66 1.43-.88.5133-.22 1.0267-.33 1.54-.33.5133-.0733.8433.11.99.55l24.42 54.12 14.19-54.12c.0733-.1467.4033-.5867.99-1.32.5867-.8067 1.2467-1.54 1.98-2.2.7333-.66 1.3933-1.1367 1.98-1.43.66-.2933 1.1-.1467 1.32.44l1.43 6.16c.22 4.0333.4033 8.7267.55 14.08.1467 5.3533.4767 10.853.99 16.5s1.3567 11.183 2.53 16.61c1.247 5.427 3.043 10.303 5.39 14.63.22.293.513.697.88 1.21s.807.99 1.32 1.43c.513.44.99.843 1.43 1.21.513.44.843.697.99.77.587.293 1.357.33 2.31.11 1.027-.22 2.09-.403 3.19-.55 1.1-.073 2.127 0 3.08.22.953.293 1.687.88 2.2 1.76.513 1.027.55 1.797.11 2.31-.367.587-.99 1.027-1.87 1.32-.88.293-1.943.44-3.19.44-1.173.073-2.347.073-3.52 0s-2.273-.22-3.3-.44c-.953-.147-1.687-.293-2.2-.44ZM122.198 123.159c.891.622 1.431 1.468 1.622 2.54.19 1.071-.026 2.052-.648 2.942-.621.891-1.468 1.431-2.539 1.622-1.071.19-2.052-.026-2.943-.648-.89-.621-1.431-1.468-1.621-2.539-.19-1.071.025-2.052.647-2.943.622-.89 1.468-1.431 2.54-1.621 1.071-.19 2.052.025 2.942.647ZM131.863 106.114c1.281 14.22 56.475 15.876 54.015 21.09-2.825 5.986-58.478-6.353-59.759-20.572-1.281-14.22 46.987-36.1181 55.12-30.9222 5.477 3.4994-50.657 16.1847-49.376 30.4042Z" fill="#2B2423"/>
      <path d="M136 87.5c0-.2761.224-.5.5-.5h4c.276 0 .5.2239.5.5v39c0 1.381-1.119 2.5-2.5 2.5s-2.5-1.119-2.5-2.5v-39ZM138.638 73h3.596l.553-.6364.277-.9545.276-.6364.554-1.9091.829-2.5454.277-1.9091v-1.5909l-.277-.9546-.553-.9545-.553-.9546-.83-.6363L141.681 59h-5.532l-1.383.3182-1.383.6363-.553.6364-.553.9546-.277 1.2727v1.5909l.277 1.9091.829 2.5454.554 1.9091.276.9546.553.9545.554.3182h3.595Z" fill="#2B2423"/>
      <path d="m138.5 86 1.743-.0234c.392-.0053.723-.2937.781-.6813l.438-2.9181.483-7.5259c.03-.4611-.336-.8513-.798-.8513h-5.294c-.462 0-.828.3902-.798.8513l.479 7.4631c.003.0418.009.0834.018.1243l.656 2.914c.081.3606.399.6187.768.6243L138.5 86Z" stroke="#2B2423" stroke-width=".768"/>
      <path d="M226 108c0 59.048-50.321 107-112.5 107C51.3206 215 1 167.048 1 108 1 48.9518 51.3206 1 113.5 1 175.679 1 226 48.9518 226 108Z" stroke="#645E58" stroke-width="2"/>
      <path d="M124.98 148v-10.08h3.962c.639 0 1.176.131 1.61.392.434.261.761.6.98 1.015.219.411.329.845.329 1.302 0 .555-.138 1.031-.413 1.428-.271.397-.637.667-1.099.812l-.014-.343c.644.159 1.139.469 1.484.931.345.457.518.992.518 1.603 0 .593-.119 1.108-.357 1.547-.233.439-.576.782-1.029 1.029-.448.243-.992.364-1.631.364h-4.34Zm1.484-1.393h2.632c.331 0 .628-.063.889-.189.266-.126.474-.306.623-.539.154-.238.231-.52.231-.847 0-.303-.068-.576-.203-.819-.131-.247-.322-.441-.574-.581-.247-.145-.539-.217-.875-.217h-2.723v3.192Zm0-4.571h2.457c.271 0 .513-.054.728-.161.219-.112.392-.271.518-.476.131-.21.196-.462.196-.756 0-.392-.131-.714-.392-.966s-.611-.378-1.05-.378h-2.457v2.737Zm13.422 6.174c-.752 0-1.412-.163-1.981-.49-.565-.331-1.006-.791-1.323-1.379-.313-.593-.469-1.279-.469-2.058 0-.826.154-1.542.462-2.149.312-.607.746-1.076 1.302-1.407.555-.331 1.201-.497 1.939-.497.77 0 1.425.18 1.967.539.541.355.945.861 1.211 1.519.27.658.378 1.44.322 2.345h-1.463v-.532c-.01-.877-.178-1.526-.504-1.946-.322-.42-.815-.63-1.477-.63-.733 0-1.284.231-1.652.693-.369.462-.553 1.129-.553 2.002 0 .831.184 1.475.553 1.932.368.453.9.679 1.596.679.457 0 .851-.103 1.183-.308.336-.21.597-.509.784-.896l1.435.455c-.294.677-.74 1.202-1.337 1.575-.598.369-1.263.553-1.995.553Zm-2.695-3.577v-1.141h5.397v1.141h-5.397Zm12.633 3.577c-.56 0-1.029-.103-1.407-.308-.378-.21-.665-.485-.861-.826-.191-.345-.287-.723-.287-1.134 0-.383.068-.719.203-1.008.135-.289.336-.534.602-.735.266-.205.593-.371.98-.497.336-.098.716-.184 1.141-.259.425-.075.87-.145 1.337-.21.471-.065.938-.131 1.4-.196l-.532.294c.009-.593-.117-1.031-.378-1.316-.257-.289-.7-.434-1.33-.434-.397 0-.761.093-1.092.28-.331.182-.562.485-.693.91l-1.365-.42c.187-.649.541-1.164 1.064-1.547.527-.383 1.227-.574 2.1-.574.677 0 1.265.117 1.764.35.504.229.873.593 1.106 1.092.121.247.196.509.224.784.028.275.042.572.042.889V148h-1.295v-1.729l.252.224c-.313.579-.712 1.01-1.197 1.295-.481.28-1.073.42-1.778.42Zm.259-1.197c.415 0 .772-.072 1.071-.217.299-.149.539-.338.721-.567.182-.229.301-.467.357-.714.079-.224.124-.476.133-.756.014-.28.021-.504.021-.672l.476.175c-.462.07-.882.133-1.26.189-.378.056-.721.112-1.029.168-.303.051-.574.114-.812.189-.201.07-.38.154-.539.252-.154.098-.278.217-.371.357-.089.14-.133.31-.133.511 0 .196.049.378.147.546.098.163.247.294.448.392.201.098.457.147.77.147Zm11.228 1.19c-.522 0-.961-.084-1.316-.252-.354-.168-.644-.387-.868-.658-.219-.275-.387-.574-.504-.896-.116-.322-.196-.637-.238-.945-.042-.308-.063-.579-.063-.812v-4.2h1.484v3.717c0 .294.024.597.07.91.052.308.145.595.28.861.14.266.334.481.581.644.252.163.579.245.98.245.262 0 .509-.042.742-.126.234-.089.437-.229.609-.42.178-.191.315-.443.413-.756.103-.313.154-.693.154-1.141l.91.343c0 .686-.128 1.293-.385 1.82-.256.523-.625.931-1.106 1.225-.48.294-1.061.441-1.743.441Zm2.499-.203v-2.184h-.175v-5.376h1.477V148h-1.302Zm10.394 0c-.476.093-.942.133-1.4.119-.457-.014-.865-.103-1.225-.266-.359-.163-.63-.42-.812-.77-.163-.313-.252-.63-.266-.952-.009-.327-.014-.695-.014-1.106v-6.685h1.47v6.615c0 .303.003.567.007.791.01.224.059.413.147.567.168.289.434.455.798.497.369.037.801.021 1.295-.049V148Zm-5.166-6.384v-1.176h5.166v1.176h-5.166Zm10.585 9.744 1.463-3.983.021 1.176-3.297-8.113h1.526l2.464 6.265h-.448l2.352-6.265h1.484l-4.172 10.92h-1.393Z" fill="#2B2423"/>
    </symbol>
    <symbol id="icon-sidebar-logo" viewBox="0 0 64 64" fill="none">
      <path d="M30.7557 43.8469c-.6272-.2555-1.1616-.6505-1.603-1.1848-.4414-.5343-.8131-1.1151-1.1151-1.7424-.302-.6505-.5459-1.3242-.7318-2.0212-.1859-.7202-.3369-1.359-.453-1.9166-.0697-.302-.151-.7667-.244-1.3939-.0697-.6505-.1626-1.3823-.2787-2.1955-.093-.8131-.1859-1.661-.2788-2.5439-.093-.8828-.1975-1.7191-.3137-2.509l-.2439-2.1954c-.0697-.6273-.1162-1.1036-.1394-1.4288l-3.3802 13.7301-.1743.3136c-.0929.1627-.2091.3485-.3485.5576-.1161.2091-.2671.4066-.453.5924-.1626.1859-.3369.3253-.5227.4182-.1626.0697-.3369.0813-.5227.0348-.1627-.0464-.3137-.1974-.4531-.453l-7.3529-14.7058-1.9515 14.7058c-.0464.2323-.151.395-.31361.4879-.16262.0697-.33686.0697-.52272 0-.16262-.0929-.31363-.2207-.45302-.3833-.13939-.1627-.19747-.3601-.17424-.5925L11.206 21.3003c0-.0929.0581-.1975.1743-.3136.1393-.1162.2904-.2091.453-.2788.1626-.0697.3252-.1046.4879-.1046.1626-.0232.2671.0349.3136.1743l7.7362 17.1452 4.4954-17.1452c.0233-.0465.1278-.1859.3137-.4182.1858-.2556.3949-.4879.6272-.697.2324-.2091.4414-.3601.6273-.453.2091-.0929.3485-.0465.4182.1394l.453 1.9515c.0697 1.2777.1278 2.7646.1742 4.4605.0465 1.696.151 3.4384.3137 5.2272.1626 1.7889.4298 3.5429.8015 5.2621.3949 1.7191.9641 3.2641 1.7075 4.6348.0697.0929.1626.2207.2788.3833.1162.1626.2556.3136.4182.453.1626.1394.3136.2672.453.3833.1626.1394.2672.2207.3136.244.1859.0929.4298.1045.7318.0348.3253-.0697.6622-.1277 1.0106-.1742.3485-.0232.6738 0 .9758.0697.302.0929.5343.2788.6969.5576.1627.3252.1743.5691.0349.7318-.1162.1858-.3136.3252-.5924.4181-.2788.093-.6157.1394-1.0106.1394a8.90481 8.90481 0 0 1-1.1152 0c-.3717-.0232-.7201-.0697-1.0454-.1394-.302-.0464-.5343-.0929-.697-.1394ZM35.9469 35.9467c.2821.197.4533.4652.5137.8045.0603.3394-.0081.6501-.2051.9322s-.4651.4534-.8045.5137c-.3394.0603-.6501-.0081-.9322-.2051s-.4533-.4651-.5136-.8045c-.0603-.3394.008-.6501.205-.9322.197-.2821.4651-.4533.8045-.5136.3394-.0603.6501.008.9322.205ZM39.0041 30.5091c.4058 4.5048 17.8913 5.0295 17.112 6.6811-.8949 1.8965-18.5259-2.0124-18.9317-6.5172-.4059-4.5048 14.8856-11.4421 17.462-9.796 1.7352 1.1086-16.0482 5.1273-15.6423 9.6321Z" fill="#FAF8F0"/>
      <path d="M40.3145 24.6125c0-.0875.0709-.1584.1584-.1584h1.2672c.0874 0 .1584.0709.1584.1584v12.3552c0 .4374-.3546.792-.792.792-.4375 0-.792-.3546-.792-.792V24.6125ZM41.1499 20.0195h1.1391l.1753-.2016.0876-.3024.0876-.2016.1753-.6048.2628-.8064.0877-.6048v-.504l-.0877-.3024-.1752-.3024-.1753-.3024-.2628-.2016-.3505-.1008h-1.7525l-.4382.1008-.4381.2016-.1752.2016-.1753.3024-.0876.4032v.504l.0876.6048.2629.8064.1752.6048.0877.3024.1752.3024.1753.1008h1.1391Z" fill="#FAF8F0"/>
      <path d="m41.1049 24.1377.5523-.0074c.1242-.0017.2288-.0931.2473-.2158l.1386-.9245.1533-2.3842c.0093-.1461-.1066-.2697-.253-.2697h-1.6771c-.1463 0-.2623.1236-.2529.2697l.152 2.3643a.25112.25112 0 0 0 .0057.0394l.2076.9231c.0257.1143.1264.196.2435.1978l.4827.0073Z" stroke="#FAF8F0" stroke-width=".2433"/>
      <circle cx="32" cy="32" r="31.676" stroke="#B5AFAE" stroke-width=".648"/>
      <path d="M36.8222 44.0273V40.834h1.2551c.2026 0 .3726.0414.5101.1242.1375.0828.241.19.3105.3215.0694.1301.1042.2676.1042.4125 0 .1759-.0436.3267-.1309.4524-.0857.1257-.2018.2114-.3481.2572l-.0045-.1086c.2041.0502.3608.1486.4702.2949.1094.1449.1641.3142.1641.5079 0 .1877-.0377.3511-.1131.49-.0739.139-.1826.2477-.326.326-.1419.0769-.3142.1153-.5167.1153h-1.3749Zm.4701-.4413h.8338c.105 0 .1989-.0199.2817-.0598.0842-.04.15-.0969.1973-.1708.0488-.0754.0732-.1648.0732-.2683 0-.0961-.0214-.1826-.0643-.2595-.0414-.0783-.102-.1397-.1818-.184-.0784-.0459-.1708-.0688-.2772-.0688h-.8627v1.0112Zm0-1.4481h.7784c.0857 0 .1626-.017.2306-.051.0695-.0354.1242-.0857.1641-.1508.0414-.0665.0621-.1463.0621-.2395 0-.1241-.0414-.2261-.1242-.306-.0828-.0798-.1936-.1197-.3326-.1197h-.7784v.867Zm4.252 1.956c-.238 0-.4472-.0518-.6276-.1553-.1788-.1049-.3186-.2505-.4191-.4368-.099-.1878-.1486-.4051-.1486-.652 0-.2617.0488-.4886.1464-.6808.099-.1922.2365-.3408.4125-.4457.1759-.105.3807-.1575.6142-.1575.244 0 .4517.0569.6232.1708.1715.1123.2994.2727.3836.4812.0858.2084.1198.4561.102.7429h-.4634v-.1686c-.003-.2779-.0562-.4834-.1597-.6165-.102-.133-.258-.1995-.4679-.1995-.2321 0-.4066.0731-.5234.2195-.1168.1464-.1752.3578-.1752.6342 0 .2632.0584.4672.1752.6121.1168.1434.2854.2151.5056.2151.1449 0 .2699-.0325.3748-.0976.1065-.0665.1893-.1611.2484-.2838l.4546.1441c-.0931.2144-.2343.3807-.4236.499-.1892.1168-.3999.1752-.632.1752Zm-.8538-1.1332v-.3615h1.7098v.3615h-1.7098Zm4.0023 1.1332c-.1774 0-.326-.0326-.4458-.0976-.1197-.0665-.2107-.1538-.2727-.2617-.0607-.1094-.091-.2291-.091-.3592 0-.1213.0215-.2277.0643-.3194.0429-.0916.1065-.1692.1908-.2328.0842-.0651.1877-.1175.3104-.1575.1065-.031.227-.0584.3615-.082.1345-.0237.2757-.0458.4236-.0665.1493-.0207.2971-.0414.4435-.0621l-.1686.0931c.003-.1878-.0369-.3267-.1197-.4169-.0813-.0917-.2218-.1375-.4214-.1375-.1256 0-.2409.0296-.3459.0887-.105.0577-.1782.1538-.2195.2883l-.4325-.1331c.0592-.2055.1715-.3688.3371-.49.1671-.1213.3888-.1819.6653-.1819.2143 0 .4006.037.5588.1109.1597.0724.2765.1877.3504.3459a.72851.72851 0 0 1 .071.2484c.0088.0872.0133.1811.0133.2816v1.4747h-.4103v-.5477l.0798.071c-.099.1833-.2254.32-.3792.4102-.1522.0887-.34.1331-.5632.1331Zm.082-.3792c.1316 0 .2447-.023.3393-.0688.0946-.0473.1708-.1072.2284-.1796.0577-.0725.0954-.1478.1131-.2262.0251-.071.0392-.1508.0421-.2395.0045-.0887.0067-.1597.0067-.2129l.1508.0554c-.1464.0222-.2794.0422-.3992.0599-.1197.0178-.2284.0355-.326.0532-.0961.0163-.1818.0363-.2572.0599-.0636.0222-.1205.0488-.1708.0799-.0487.031-.0879.0687-.1175.113-.0281.0444-.0421.0984-.0421.1619 0 .0621.0155.1198.0465.173.0311.0518.0784.0931.142.1242.0635.031.1449.0466.2439.0466Zm3.5572.377c-.1656 0-.3046-.0267-.4169-.0799-.1124-.0532-.204-.1227-.275-.2084-.0695-.0873-.1227-.1819-.1597-.2839-.0369-.102-.0621-.2018-.0754-.2994-.0133-.0975-.0199-.1833-.0199-.2572v-1.3306h.4701v1.1776c0 .0931.0074.1892.0222.2883.0162.0975.0458.1885.0887.2727.0443.0843.1057.1523.184.2041.0799.0517.1834.0776.3105.0776.0828 0 .1611-.0133.2351-.0399.0739-.0281.1382-.0725.1929-.1331.0562-.0606.0998-.1405.1308-.2395.0326-.0991.0488-.2195.0488-.3615l.2883.1087c0 .2173-.0406.4095-.122.5766-.0813.1655-.1981.2949-.3503.388-.1523.0932-.3364.1398-.5522.1398Zm.7917-.0644v-.6918h-.0555v-1.7032h.4679v2.395h-.4124Zm3.2928 0c-.1508.0296-.2986.0422-.4435.0377-.1449-.0044-.2743-.0325-.3881-.0842-.1138-.0518-.1996-.1331-.2573-.244-.0517-.099-.0798-.1995-.0842-.3016-.003-.1034-.0045-.2202-.0045-.3503v-2.1178h.4657v2.0956c0 .0961.0008.1796.0023.2506.0029.0709.0184.1308.0465.1796.0532.0917.1375.1441.2528.1575.1168.0118.2536.0066.4103-.0156v.3925Zm-1.6366-2.0224v-.3726h1.6366v.3726h-1.6366Zm3.3532 3.0869.4635-1.2618.0066.3725-1.0444-2.5702h.4834l.7806 1.9848h-.1419l.7451-1.9848h.4701l-1.3217 3.4595h-.4413Z" fill="#FAF8F0"/>
    </symbol>
    <symbol id="icon-eye-closed" viewBox="0 0 32 32">
      <path d="M29.443 15.194c-1.099-2.314-2.406-4.202-3.922-5.662l-1.59 1.59c1.297 1.239 2.426 2.86 3.403 4.879-2.6 5.381-6.291 7.937-11.334 7.937-1.514 0-2.908-.233-4.183-.699l-1.723 1.723c1.771.818 3.74 1.227 5.906 1.227 6.006 0 10.487-3.128 13.444-9.384.119-.252.181-.526.181-.805s-.062-.553-.181-.805zm-1.987-10.02L26.124 3.84c-.023-.023-.051-.042-.081-.054s-.063-.019-.096-.019-.065.006-.096.019-.058.031-.081.054l-3.418 3.416c-1.884-.963-4.002-1.444-6.353-1.444-6.006 0-10.488 3.128-13.444 9.384-.119.252-.18.527-.18.805s.062.553.18.805c1.181 2.487 2.603 4.481 4.266 5.981l-3.307 3.306c-.047.047-.073.11-.073.177s.026.13.073.177l1.334 1.334c.047.047.11.073.177.073s.13-.026.177-.073L27.457 5.527c.023-.023.042-.051.054-.081s.019-.063.019-.096-.007-.065-.019-.096-.031-.058-.054-.081zM4.665 16c2.603-5.381 6.294-7.938 11.334-7.938 1.704 0 3.254.293 4.66.887l-2.197 2.197c-1.04-.555-2.232-.761-3.398-.588s-2.246.717-3.08 1.551c-.834.834-1.378 1.914-1.551 3.08s.033 2.358.588 3.398l-2.607 2.607c-1.443-1.273-2.687-2.999-3.749-5.195zm7.709 0c.001-.551.131-1.094.381-1.585s.612-.916 1.057-1.241c.445-.325.961-.54 1.505-.628s1.101-.047 1.626.121L12.54 17.07c-.11-.346-.166-.706-.166-1.069z"/>
      <path d="M15.875 19.5c-.108 0-.215-.005-.32-.015l-1.651 1.651c.993.38 2.075.465 3.114.243s1.993-.739 2.745-1.491c.752-.752 1.27-1.705 1.491-2.745s.137-2.121-.243-3.114L19.36 15.68c.01.106.015.212.015.32 0 .46-.09.915-.266 1.34a3.50094 3.50094 0 0 1-1.895 1.895c-.425.176-.88.266-1.34.266z"/>
    </symbol>
    <symbol id="icon-eye-opened" viewBox="0 0 32 32">
      <path d="M29.443 15.194c-2.963-6.241-7.441-9.381-13.444-9.381-6.006 0-10.481 3.141-13.444 9.384-.119.252-.18.526-.18.805s.062.553.18.805c2.963 6.241 7.441 9.381 13.444 9.381 6.006 0 10.481-3.141 13.444-9.384.241-.506.241-1.094 0-1.609zm-13.444 8.743c-5.041 0-8.731-2.556-11.334-7.937 2.603-5.381 6.294-7.938 11.334-7.938S24.73 10.618 27.333 16c-2.6 5.381-6.291 7.937-11.334 7.937zM15.874 10.5c-3.038 0-5.5 2.463-5.5 5.5s2.463 5.5 5.5 5.5 5.5-2.463 5.5-5.5-2.463-5.5-5.5-5.5zm0 9c-1.934 0-3.5-1.566-3.5-3.5s1.566-3.5 3.5-3.5 3.5 1.566 3.5 3.5-1.566 3.5-3.5 3.5z"/>
    </symbol>
    <symbol id="icon-logout" viewBox="0 0 32 32">
      <path  d="M27.126 22.875h-2.197c-.15 0-.291.066-.384.181-.219.266-.453.522-.7.766-1.01 1.011-2.206 1.816-3.522 2.372-1.364.576-2.829.871-4.309.869-1.497 0-2.947-.294-4.309-.869-1.316-.556-2.512-1.361-3.522-2.372-1.011-1.007-1.818-2.201-2.375-3.516-.578-1.363-.869-2.809-.869-4.306s.294-2.944.869-4.306c.556-1.316 1.356-2.5 2.375-3.516s2.203-1.816 3.522-2.372c1.363-.575 2.813-.869 4.309-.869s2.947.291 4.309.869c1.319.556 2.503 1.356 3.522 2.372.247.247.478.503.7.766.094.116.238.181.384.181h2.197c.197 0 .319-.219.209-.384-2.397-3.725-6.591-6.191-11.356-6.178C8.492 2.582 2.488 8.66 2.563 16.138c.075 7.359 6.069 13.3 13.45 13.3 4.753 0 8.928-2.463 11.322-6.178.106-.166-.012-.384-.209-.384zm2.778-7.072-4.434-3.5c-.166-.131-.406-.012-.406.197v2.375h-9.813c-.137 0-.25.113-.25.25v1.75c0 .137.113.25.25.25h9.813V19.5c0 .209.244.328.406.197l4.434-3.5c.03-.023.054-.053.071-.087S30 16.038 30 16c0-.038-.009-.075-.025-.11s-.041-.064-.071-.087z"/>
    </symbol>
    <symbol id="icon-settings" viewBox="0 0 32 32">
      <path  d="m28.9 19.553-2.047-1.75c.097-.594.147-1.2.147-1.806s-.05-1.213-.147-1.806l2.047-1.75c.154-.132.265-.308.317-.505s.043-.404-.026-.595l-.028-.081c-.564-1.575-1.407-3.035-2.491-4.309l-.056-.066c-.131-.155-.307-.266-.502-.319s-.403-.045-.595.022l-2.541.903c-.938-.769-1.984-1.375-3.116-1.8l-.491-2.656c-.037-.2-.134-.384-.278-.527s-.328-.24-.528-.276l-.084-.016c-1.628-.294-3.341-.294-4.969 0l-.084.016c-.2.036-.384.132-.528.276s-.241.327-.278.527l-.494 2.669c-1.122.425-2.167 1.031-3.094 1.794l-2.559-.909c-.191-.068-.399-.076-.595-.022s-.371.164-.502.319l-.056.066a13.93823 13.93823 0 0 0-2.491 4.309l-.028.081c-.141.391-.025.828.291 1.1l2.072 1.769c-.097.588-.144 1.188-.144 1.784 0 .6.047 1.2.144 1.784l-2.072 1.769c-.154.132-.265.308-.317.505s-.043.404.026.595l.028.081c.566 1.575 1.403 3.028 2.491 4.309l.056.066c.131.155.307.266.502.319s.403.046.595-.022l2.559-.909c.931.766 1.972 1.372 3.094 1.794l.494 2.669c.037.2.134.384.278.527s.328.24.528.276l.084.016c1.643.295 3.326.295 4.969 0l.084-.016c.2-.036.384-.133.528-.276s.241-.327.278-.527l.491-2.656c1.131-.424 2.184-1.032 3.116-1.8l2.541.903c.191.068.399.076.595.023s.371-.164.502-.319l.056-.066c1.087-1.284 1.925-2.734 2.491-4.309l.028-.081c.141-.384.025-.822-.291-1.094zm-4.265-4.994c.078.472.119.956.119 1.441s-.041.969-.119 1.441l-.206 1.253 2.334 1.997c-.354.815-.801 1.587-1.331 2.3l-2.9-1.028-.981.806c-.747.613-1.578 1.094-2.478 1.431l-1.191.447-.559 3.031c-.883.1-1.774.1-2.656 0l-.559-3.038-1.181-.453c-.891-.337-1.719-.819-2.459-1.428l-.981-.809-2.919 1.038c-.531-.716-.975-1.488-1.331-2.3l2.359-2.016-.203-1.25c-.075-.466-.116-.947-.116-1.422 0-.478.037-.956.116-1.422l.203-1.25-2.359-2.016c.353-.816.8-1.584 1.331-2.3l2.919 1.037.981-.809c.741-.609 1.569-1.091 2.459-1.428l1.184-.447.559-3.037c.878-.1 1.775-.1 2.656 0l.559 3.031 1.191.447c.897.338 1.731.819 2.478 1.431l.981.806 2.9-1.028c.531.716.975 1.487 1.331 2.3l-2.334 1.997.203 1.247zM16 10.187c-3.037 0-5.5 2.463-5.5 5.5s2.463 5.5 5.5 5.5c3.038 0 5.5-2.462 5.5-5.5s-2.462-5.5-5.5-5.5zm2.475 7.975c-.325.326-.71.584-1.135.76s-.88.266-1.34.265c-.934 0-1.813-.366-2.475-1.025-.326-.325-.584-.71-.76-1.135s-.266-.88-.265-1.34c0-.934.366-1.813 1.025-2.475.662-.662 1.541-1.025 2.475-1.025s1.813.363 2.475 1.025c.326.325.584.71.76 1.135s.266.88.265 1.34c0 .934-.366 1.813-1.025 2.475z"/>
    </symbol>
    <symbol id="icon-gallery" viewBox="0 0 32 32">
      <path  d="M29 6H3c-.553 0-1 .487-1 1.091v21.818C2 29.512 2.447 30 3 30h26c.553 0 1-.488 1-1.091V7.091C30 6.488 29.553 6 29 6zm-1.25 21.546H4.25v-1.36l4.328-5.601 4.691 6.068 7.297-9.436 7.184 9.293v1.036zm0-4.426-6.994-9.048c-.1-.13-.281-.13-.381 0l-7.106 9.191-4.5-5.819c-.1-.13-.281-.13-.381 0L4.25 22.796V8.454h23.5V23.12zM9.5 16.091c.361 0 .719-.078 1.052-.228s.637-.372.892-.65.458-.609.596-.973.209-.754.209-1.148-.071-.784-.209-1.148c-.138-.364-.341-.695-.596-.973s-.559-.5-.892-.65c-.334-.151-.691-.228-1.052-.228-.729 0-1.429.316-1.945.879s-.805 1.326-.805 2.121c0 .796.29 1.559.805 2.121s1.215.879 1.945.879zm0-3.955c.484 0 .875.426.875.954s-.391.955-.875.955-.875-.426-.875-.955.391-.954.875-.954z"/>
    </symbol>
    <symbol id="icon-makeup" viewBox="0 0 32 32">
      <path  d="M9 13.156c0 .398.158.779.439 1.061s.663.439 1.061.439c.398 0 .779-.158 1.061-.439s.439-.663.439-1.061c0-.398-.158-.779-.439-1.061s-.663-.439-1.061-.439c-.398 0-.779.158-1.061.439S9 12.758 9 13.156zm11 0c0 .398.158.779.439 1.061s.663.439 1.061.439c.398 0 .779-.158 1.061-.439s.439-.663.439-1.061c0-.398-.158-.779-.439-1.061s-.663-.439-1.061-.439c-.398 0-.779.158-1.061.439S20 12.758 20 13.156zM16 2C8.269 2 2 8.269 2 16s6.269 14 14 14 14-6.269 14-14S23.731 2 16 2zm8.219 22.219c-1.069 1.069-2.313 1.906-3.697 2.494-1.428.606-2.95.913-4.522.913s-3.094-.306-4.525-.913c-1.382-.584-2.638-1.431-3.697-2.494-1.069-1.069-1.906-2.313-2.494-3.697-.603-1.428-.909-2.95-.909-4.522s.306-3.094.912-4.525c.584-1.382 1.431-2.638 2.494-3.697 1.069-1.069 2.313-1.906 3.697-2.494 1.428-.603 2.95-.909 4.522-.909s3.094.306 4.525.912c1.382.584 2.638 1.431 3.697 2.494 1.069 1.069 1.906 2.313 2.494 3.697.603 1.428.909 2.95.909 4.522s-.306 3.094-.913 4.525c-.583 1.382-1.43 2.636-2.494 3.694zm-3.469-7.563h-1.503c-.131 0-.244.1-.253.231-.119 1.547-1.416 2.769-2.994 2.769s-2.878-1.222-2.994-2.769c-.009-.131-.122-.231-.253-.231H11.25c-.034 0-.068.007-.099.02s-.059.033-.083.057c-.023.025-.042.054-.053.085s-.017.066-.015.1c.137 2.634 2.328 4.737 5 4.737s4.863-2.103 5-4.737c.002-.034-.003-.068-.015-.1s-.03-.061-.053-.085c-.023-.024-.052-.044-.083-.057s-.065-.02-.099-.02z"/>
    </symbol>
    <symbol id="icon-style" viewBox="0 0 32 32">
      <path  d="M27.187 3.938h-6.444c-.544 0-1.028.372-1.156.916-.391 1.65-1.869 2.834-3.587 2.834s-3.197-1.184-3.588-2.834c-.061-.261-.208-.493-.418-.66s-.47-.257-.738-.256H4.812c-.365 0-.714.145-.972.403s-.403.608-.403.972v7.875c0 .365.145.714.403.972s.608.403.972.403h2.344v12.125c0 .365.145.714.403.972s.608.403.972.403h14.938c.365 0 .714-.145.972-.403s.403-.608.403-.972V14.563h2.344c.365 0 .714-.145.972-.403s.403-.608.403-.972V5.313c0-.365-.145-.714-.403-.972s-.608-.403-.972-.403zm-.874 8.375h-3.719v13.5H9.407v-13.5H5.688V6.188h4.791c.881 2.225 3.047 3.75 5.522 3.75s4.641-1.525 5.522-3.75h4.791v6.125z"/>
    </symbol>
    <symbol id="icon-plus" viewBox="0 0 32 32" fill="white">
<path d="M15.063 4.75h1.875c0.167 0 0.25 0.083 0.25 0.25v22c0 0.167-0.083 0.25-0.25 0.25h-1.875c-0.167 0-0.25-0.083-0.25-0.25v-22c0-0.167 0.083-0.25 0.25-0.25z"></path>
<path  d="M6 14.813h21c0.167 0 0.25 0.083 0.25 0.25v1.875c0 0.167-0.083 0.25-0.25 0.25h-22c-0.167 0-0.25-0.083-0.25-0.25v-1.875c0-0.167 0.083-0.25 0.25-0.25h1z"></path>
</symbol>

<symbol id="icon-delete" viewBox="0 0 32 32">
<path d="M11.25 5.75h-0.25c0.137 0 0.25-0.112 0.25-0.25v0.25zM11.25 5.75h9.5v-0.25c0 0.138 0.113 0.25 0.25 0.25h-0.25v2.25h2.25v-2.5c0-1.103-0.897-2-2-2h-10c-1.103 0-2 0.897-2 2v2.5h2.25v-2.25zM27 8h-22c-0.553 0-1 0.447-1 1v1c0 0.137 0.112 0.25 0.25 0.25h1.888l0.772 16.344c0.050 1.066 0.931 1.906 1.997 1.906h14.187c1.069 0 1.947-0.837 1.997-1.906l0.772-16.344h1.887c0.137 0 0.25-0.113 0.25-0.25v-1c0-0.553-0.447-1-1-1zM22.853 26.25h-13.706l-0.756-16h15.219l-0.756 16z"></path>
</symbol>
<symbol id="icon-update" viewBox="0 0 32 32">
<path d="M8.053 23.5c0.063 0 0.125-0.006 0.188-0.016l5.256-0.922c0.062-0.013 0.122-0.041 0.166-0.087l13.247-13.247c0.029-0.029 0.052-0.063 0.068-0.101s0.024-0.078 0.024-0.119-0.008-0.081-0.024-0.119c-0.016-0.038-0.039-0.072-0.068-0.101l-5.194-5.197c-0.059-0.059-0.137-0.091-0.222-0.091s-0.163 0.031-0.222 0.091l-13.247 13.247c-0.047 0.047-0.075 0.103-0.088 0.166l-0.922 5.256c-0.030 0.167-0.020 0.34 0.032 0.502s0.141 0.31 0.262 0.429c0.206 0.2 0.466 0.309 0.744 0.309zM10.159 18.050l11.334-11.331 2.291 2.291-11.334 11.331-2.778 0.491 0.488-2.781zM27.5 26.125h-23c-0.553 0-1 0.447-1 1v1.125c0 0.137 0.112 0.25 0.25 0.25h24.5c0.137 0 0.25-0.113 0.25-0.25v-1.125c0-0.553-0.447-1-1-1z"></path>
</symbol>
<symbol id="icon-upload" viewBox="0 0 32 32">
<path fill="#72706f" style="fill: var(--color1, #72706f)" d="M15.803 20.656c0.023 0.030 0.053 0.054 0.087 0.071s0.071 0.025 0.109 0.025c0.038 0 0.075-0.009 0.109-0.025s0.064-0.041 0.087-0.071l3.5-4.428c0.128-0.163 0.012-0.403-0.197-0.403h-2.316v-10.575c0-0.138-0.113-0.25-0.25-0.25h-1.875c-0.137 0-0.25 0.112-0.25 0.25v10.572h-2.309c-0.209 0-0.325 0.241-0.197 0.403l3.5 4.431zM27.437 19.563h-1.875c-0.137 0-0.25 0.113-0.25 0.25v4.813h-18.625v-4.813c0-0.137-0.112-0.25-0.25-0.25h-1.875c-0.138 0-0.25 0.113-0.25 0.25v6.187c0 0.553 0.447 1 1 1h21.375c0.553 0 1-0.447 1-1v-6.187c0-0.137-0.113-0.25-0.25-0.25z"></path>
</symbol>

 <symbol id="icon-loader" viewBox="0 0 36 36" fill="transparent">
    <g id="Property 1=Variant4">
      <path id="Ellipse 29" d="M18 2C26.8366 2 34 9.16344 34 18C34 26.8366 26.8366 34 18 34C9.16344 34 2 26.8366 2 18C2 9.16344 9.16344 2 18 2Z" stroke="url(#paint0_linear_716_4556)" stroke-width="4"/>
    </g>
    <defs>
      <linearGradient id="paint0_linear_716_4556" x1="2" y1="18" x2="34" y2="18" gradientUnits="userSpaceOnUse">
        <stop offset="0.06" stop-color="#2B2423"/>
        <stop offset="0.275" stop-color="#645E58"/>
        <stop offset="0.545" stop-color="#72706F"/>
        <stop offset="0.86" stop-color="#B5AFAE"/>
        <stop offset="1" stop-color="#ECE8E7"/>
      </linearGradient>
    </defs>
  </symbol>

  <symbol id="icon-pagination-arrow" viewBox="0 0 32 32">
<path d="M22.625 6.822v-2.416c0-0.209-0.241-0.325-0.403-0.197l-14.087 11.003c-0.12 0.093-0.217 0.212-0.283 0.348s-0.101 0.286-0.101 0.438c0 0.152 0.035 0.301 0.101 0.437s0.163 0.255 0.283 0.349l14.087 11.003c0.166 0.128 0.403 0.012 0.403-0.197v-2.416c0-0.153-0.072-0.3-0.191-0.394l-11.25-8.781 11.25-8.784c0.119-0.094 0.191-0.241 0.191-0.394z"></path>
</symbol>
  </defs>
</svg>
